<svg xmlns="http://www.w3.org/2000/svg" xmlns:xlink="http://www.w3.org/1999/xlink" width="842" height="98" viewBox="0 0 842 98">
    <defs>
        <path id="a" d="M.793.979h1.64v19.868H.793z"/>
        <path id="c" d="M1.202.82h473.604v13.934H1.202z"/>
    </defs>
    <g fill="none" fill-rule="evenodd">
        <path fill="#FFF" d="M0 60.204h181.944V22.61H0z"/>
        <path fill="#E02E1C" d="M.04 37.212h181.902v-8.91H.039z"/>
        <path fill="#0A824A" d="M.04 54.514h181.902v-8.912H.039z"/>
        <path fill="#FFF" d="M657.205 60.204h184.786V22.61H657.205z"/>
        <path fill="#E02E1C" d="M657.246 37.212h184.745v-8.91H657.246z"/>
        <path fill="#0A824A" d="M657.246 54.514h184.745v-8.912H657.246z"/>
        <path fill="#FFF" d="M245.067 36.253c1.051-1.386 2.417-2.801 3.826-4.26 3.05-3.16 6.303-6.526 6.754-10.08a3.282 3.282 0 0 1-1.092.714 3.717 3.717 0 0 1-1.07.258h-.001m-4.012 9.665c-1.315 1.36-2.593 2.685-3.593 3.966.935 1.205 2.117 2.503 3.347 3.852 3.769 4.135 7.97 8.744 7.205 13.022l-.003.024a2.036 2.036 0 0 1-.145.597l-.372-.151.372.152a.404.404 0 0 1-.525.222.405.405 0 0 1-.224-.517c.04-.142.072-.283.098-.426.018-.338-.097-.687-.316-.997a2.422 2.422 0 0 0-1.066-.818 2.92 2.92 0 0 0-.838-.203 3.408 3.408 0 0 0-2.162.508c-.474.304-.835.722-1.017 1.199a2.55 2.55 0 0 1-.052.37l-.266-.057-.008-.002.275.06a.404.404 0 0 1-.464.31l-.02-.003v-.001h-.001v.003a.402.402 0 0 1-.346-.51c.021-.11.05-.218.085-.324.002-.433-.175-.84-.479-1.17-.33-.352-.81-.619-1.378-.745a3.485 3.485 0 0 0-.587-.074h-.033l-.095-.002h-.03c-.772 0-1.456.24-1.948.627-.416.328-.692.759-.762 1.234.005.054.008.11.01.164h.001V52.934h.002a.403.403 0 0 1-.397.41h-.036a.404.404 0 0 1-.404-.404l.004-.044v-.03h.005-.007c0-.016.002-.029.003-.044.002-.042.005-.083.01-.126-.072-.475-.35-.906-.764-1.234-.494-.387-1.178-.627-1.948-.627v-.001l-.096.001-.027.002h-.002a3.219 3.219 0 0 0-.617.074c-.569.124-1.048.392-1.38.746-.3.326-.476.726-.478 1.155.041.122.072.246.097.374h.001a.403.403 0 0 1-.393.476l-.022.003a.403.403 0 0 1-.434-.335 2.627 2.627 0 0 1-.048-.363c-.185-.473-.544-.886-1.015-1.186a3.413 3.413 0 0 0-2.162-.508c-.3.028-.58.098-.836.202a2.429 2.429 0 0 0-1.046.792l-.02.027-.328-.23.326.23a1.633 1.633 0 0 0-.318.956c.03.176.067.351.115.526l.002-.001a.404.404 0 0 1-.77.241 2.134 2.134 0 0 1-.14-.592l-.006-.069c-.731-4.369 3.18-8.543 6.853-12.457 1.356-1.448 2.68-2.86 3.705-4.217-1.007-1.336-2.316-2.773-3.666-4.255-3.831-4.207-7.976-8.761-6.84-12.776.026-.108.058-.216.101-.32l.374.151-.374-.152a.402.402 0 1 1 .746.3c-.026.077-.049.154-.072.231-.011.05-.018.102-.023.154-.033.357.084.728.313 1.053.243.339.61.63 1.065.816.249.102.521.17.81.2l.031.002a3.391 3.391 0 0 0 2.158-.504c.471-.301.832-.716 1.017-1.19a2.42 2.42 0 0 1 .053-.379l.154.032.01.001-.164-.034a.405.405 0 0 1 .444-.315l.028.002-.002.003h.002v-.003a.401.401 0 0 1 .366.506 3.547 3.547 0 0 1-.092.345c.002.42.17.816.464 1.137l.017.018-.296.274.296-.272c.33.356.808.623 1.379.746.188.04.385.067.584.075h.031l.095.003.031-.001c.771 0 1.453-.241 1.947-.63.415-.326.692-.759.764-1.234a1.799 1.799 0 0 1-.011-.162h-.002c0-.015 0-.03.002-.043l-.002-.033h-.002a.402.402 0 0 1 .397-.408h.036c.223 0 .404.179.404.402l-.002.042-.001.033h.001c0 .013 0 .028-.003.043a1.476 1.476 0 0 1-.01.124c.072.477.348.91.764 1.236.492.389 1.176.63 1.949.63v.001l.095-.001.028-.002h.001c.21-.005.419-.033.619-.075.56-.122 1.033-.382 1.363-.73l.014-.018h.002a1.71 1.71 0 0 0 .479-1.17 2.667 2.667 0 0 1-.093-.363h-.002a.404.404 0 0 1 .395-.475l.025-.002a.402.402 0 0 1 .425.338c.024.115.039.231.047.348.182.478.543.898 1.017 1.203a3.416 3.416 0 0 0 2.13.505l.032-.003c.3-.027.583-.097.84-.204a2.403 2.403 0 0 0 1.064-.814 1.63 1.63 0 0 0 .318-.887 6.168 6.168 0 0 0-.113-.582h-.002a.404.404 0 0 1 .773-.228c.073.187.12.383.137.58.005.056.007.112.008.166.643 4.557-3.3 8.64-6.965 12.434m4.012-9.665v.001l-.033.002a4.22 4.22 0 0 1-2.636-.63 3.591 3.591 0 0 1-.802-.701c-.116.25-.274.483-.469.693l-.293-.272.295.274-.02.02c-.438.463-1.054.81-1.778.967-.24.052-.495.082-.766.091h-.04l-.1.002v.002h-.012c-.956-.002-1.814-.307-2.442-.802a3.019 3.019 0 0 1-.67-.728 2.996 2.996 0 0 1-.67.728c-.628.495-1.488.802-2.444.802l-.044-.004h-.1v-.022.022l-.043-.001a4.359 4.359 0 0 1-.725-.09c-.731-.16-1.356-.513-1.797-.989l-.002.002v-.002.002l-.018-.022a2.668 2.668 0 0 1-.45-.67 3.592 3.592 0 0 1-.803.698 4.209 4.209 0 0 1-2.668.627h-.002v.001l-.03-.003a3.753 3.753 0 0 1-1.036-.256 3.309 3.309 0 0 1-1.15-.772c.494 3.153 3.728 6.705 6.757 10.03 1.442 1.585 2.84 3.118 3.896 4.559a.401.401 0 0 1-.018.5c-1.073 1.46-2.482 2.964-3.928 4.503-3.013 3.216-6.195 6.61-6.66 10.013.3-.302.673-.554 1.106-.73a3.682 3.682 0 0 1 1.066-.257 4.231 4.231 0 0 1 2.669.631c.306.199.577.431.802.697.116-.25.274-.482.467-.69.44-.474 1.065-.826 1.8-.985.237-.053.493-.084.762-.092v-.002h.04l.101-.002v-.001h.011c.955.001 1.814.308 2.44.801.268.212.496.456.672.727.175-.27.401-.515.669-.727.628-.495 1.487-.801 2.447-.801l.044.003.099.002v.021-.023l.042.003c.258.01.5.041.728.09.733.161 1.358.512 1.796.986.195.208.353.442.47.692.224-.268.495-.502.801-.699a4.224 4.224 0 0 1 2.669-.63 3.76 3.76 0 0 1 1.067.256c.427.176.8.423 1.094.72-.533-3.428-3.924-7.15-7.014-10.54-1.324-1.453-2.595-2.848-3.58-4.152v.002a.404.404 0 0 1 .016-.507m-11.145-13.37a.404.404 0 0 1-.332-.436M278.282 36.253c1.051-1.386 2.417-2.801 3.826-4.26 3.052-3.16 6.304-6.526 6.754-10.08a3.343 3.343 0 0 1-1.09.714l-.042.015a3.771 3.771 0 0 1-1.03.243v.001l-.033.002a4.217 4.217 0 0 1-2.635-.63 3.59 3.59 0 0 1-.802-.7c-.117.25-.274.484-.47.692v.002l-.027.028c-.44.46-1.053.803-1.771.959a4.278 4.278 0 0 1-.765.091h-.04l-.1.002v.002h-.011c-.957-.002-1.815-.307-2.442-.802a3.026 3.026 0 0 1-.67-.728 2.989 2.989 0 0 1-.67.728c-.628.495-1.489.802-2.445.802l-.044-.004h-.099v-.022.022l-.044-.001a4.38 4.38 0 0 1-.725-.09c-.733-.16-1.358-.513-1.799-.987a2.72 2.72 0 0 1-.467-.692 3.62 3.62 0 0 1-.802.698 4.216 4.216 0 0 1-2.67.627h-.002v.001l-.03-.003a3.785 3.785 0 0 1-1.035-.254 3.32 3.32 0 0 1-1.15-.774c.494 3.153 3.729 6.705 6.756 10.031 1.444 1.584 2.84 3.118 3.895 4.558h.002c.113.154.1.36-.018.5-1.074 1.46-2.481 2.962-3.928 4.503-3.014 3.215-6.196 6.608-6.66 10.011.298-.3.674-.552 1.105-.728.322-.13.68-.222 1.066-.257a4.239 4.239 0 0 1 2.67.631c.305.197.576.431.8.697.117-.25.274-.482.468-.69.441-.474 1.064-.826 1.798-.985.239-.053.495-.084.764-.092v-.002h.04l.1-.002v-.001h.012c.956.001 1.814.308 2.442.801.268.21.494.456.67.727a3.05 3.05 0 0 1 .67-.727c.628-.495 1.488-.801 2.446-.801l.044.003.098.002v.021-.023l.045.003c.256.01.498.041.726.09.735.161 1.358.512 1.798.986.193.208.35.442.467.692.226-.268.495-.502.802-.699a4.229 4.229 0 0 1 2.669-.63c.387.035.746.125 1.069.256l-.153.374.153-.372v-.002l.04.019c.41.173.767.416 1.054.701-.535-3.428-3.925-7.15-7.016-10.54-1.324-1.453-2.595-2.848-3.58-4.152v.002a.404.404 0 0 1 .016-.507m4.405-3.703c-1.315 1.36-2.593 2.685-3.593 3.966.934 1.205 2.117 2.503 3.347 3.852 3.769 4.135 7.97 8.744 7.205 13.022l-.002.024a2.039 2.039 0 0 1-.146.597l-.372-.151.372.152a.404.404 0 0 1-.75-.295c.04-.142.073-.283.1-.424.019-.34-.098-.689-.316-.999a2.446 2.446 0 0 0-1.033-.806l-.035-.012v-.001a2.988 2.988 0 0 0-.838-.202 3.41 3.41 0 0 0-2.161.508c-.473.304-.833.722-1.017 1.199a2.367 2.367 0 0 1-.05.37l-.268-.057-.007-.002.274.06a.403.403 0 0 1-.464.31l-.018-.003v-.001h-.002v.003a.403.403 0 0 1-.347-.51c.02-.11.05-.218.085-.324.001-.435-.174-.84-.48-1.17-.329-.353-.81-.619-1.377-.745a3.464 3.464 0 0 0-.587-.074h-.033l-.093-.002h-.031c-.773 0-1.457.24-1.949.627-.415.328-.692.759-.762 1.234a2.752 2.752 0 0 1 .011.203v.035h.002a.401.401 0 0 1-.397.41H276.919a.404.404 0 0 1-.402-.404l.002-.044v-.03h.005-.007l.003-.044c.002-.042.005-.083.01-.126-.07-.475-.348-.906-.764-1.234-.492-.387-1.176-.627-1.949-.627v-.001l-.093.001-.028.002h-.002a3.204 3.204 0 0 0-.618.074c-.569.126-1.048.393-1.378.746-.301.326-.478.726-.48 1.155.04.122.074.246.097.374h.001a.402.402 0 0 1-.393.476l-.022.003a.4.4 0 0 1-.433-.335 2.232 2.232 0 0 1-.047-.363c-.187-.473-.546-.886-1.017-1.186a3.413 3.413 0 0 0-2.162-.508 2.99 2.99 0 0 0-.836.202 2.416 2.416 0 0 0-1.05.798l-.016.021h-.002a1.627 1.627 0 0 0-.316.956c.03.176.067.351.113.526l.001-.001a.404.404 0 0 1-.769.24 2.134 2.134 0 0 1-.14-.591l-.006-.069c-.731-4.37 3.18-8.543 6.853-12.459 1.358-1.446 2.68-2.857 3.704-4.215-1.007-1.336-2.315-2.773-3.665-4.255-3.831-4.205-7.976-8.761-6.84-12.776.025-.108.06-.216.102-.32l.373.151-.373-.152a.402.402 0 0 1 .747.3c-.028.077-.051.154-.072.233-.012.05-.02.1-.025.152-.031.357.084.728.315 1.053.24.339.608.63 1.064.816.248.102.52.17.81.2l.032.002a3.389 3.389 0 0 0 2.156-.504c.471-.301.832-.716 1.019-1.188.006-.13.023-.256.05-.38l.155.03.02.006-.174-.038a.406.406 0 0 1 .449-.315l.023.002v.003-.003a.402.402 0 0 1 .366.506 2.804 2.804 0 0 1-.092.345c.002.429.179.83.48 1.155.33.356.809.625 1.38.748.188.04.385.067.584.075h.032l.096.003.029-.001c.77 0 1.455-.241 1.947-.63.416-.326.694-.759.764-1.234-.005-.054-.01-.108-.011-.162a.185.185 0 0 1 0-.043v-.033h-.002a.4.4 0 0 1 .395-.408h.038c.221 0 .402.179.402.402l-.002.042v.033h.002l-.004.043a20.16 20.16 0 0 1-.01.124c.071.477.348.91.763 1.236.492.389 1.176.63 1.949.63v.001l.095-.001.028-.002h.001c.21-.005.419-.033.619-.075.557-.122 1.028-.379 1.354-.722l.023-.026.296.274-.294-.274c.305-.328.48-.734.479-1.17a3.256 3.256 0 0 1-.094-.363.402.402 0 0 1 .394-.475l.025-.002a.405.405 0 0 1 .426.338c.023.115.04.23.046.348.182.478.544.896 1.018 1.203a3.408 3.408 0 0 0 2.13.505l.03-.003.036.401-.036-.401c.292-.025.561-.09.807-.187l.035-.017v.002l.15.372-.15-.374a2.432 2.432 0 0 0 1.064-.814c.195-.277.309-.582.317-.887a6.726 6.726 0 0 0-.112-.582h-.001a.402.402 0 0 1 .77-.228 2.108 2.108 0 0 1 .146.746c.643 4.557-3.3 8.64-6.965 12.434m-15.55-9.667a.405.405 0 0 1-.333-.436M311.497 36.253c1.05-1.386 2.418-2.801 3.826-4.26 3.053-3.16 6.305-6.526 6.754-10.082a3.325 3.325 0 0 1-1.09.715v.001l-.018.007c-.32.13-.673.216-1.053.25h-.002v.002l-.031.002a4.217 4.217 0 0 1-2.636-.63 3.59 3.59 0 0 1-.802-.7c-.118.25-.274.484-.469.692v.002l-.028.028c-.44.46-1.053.803-1.77.959a4.278 4.278 0 0 1-.765.091h-.04l-.1.002v.002h-.011c-.958-.002-1.816-.307-2.442-.802a2.993 2.993 0 0 1-.671-.728 2.989 2.989 0 0 1-.67.728c-.629.495-1.488.802-2.444.802l-.045-.004h-.098v-.022.022l-.044-.001a4.38 4.38 0 0 1-.725-.09c-.733-.16-1.358-.513-1.8-.987a2.72 2.72 0 0 1-.467-.692 3.592 3.592 0 0 1-.804.698 4.209 4.209 0 0 1-2.668.627h-.002v.001l-.03-.003a3.785 3.785 0 0 1-1.034-.254 3.29 3.29 0 0 1-1.151-.774c.493 3.153 3.728 6.705 6.757 10.031 1.443 1.584 2.84 3.117 3.895 4.558h.002c.113.154.1.36-.018.5-1.075 1.46-2.484 2.962-3.928 4.503-3.015 3.215-6.197 6.608-6.662 10.011.3-.3.674-.552 1.107-.73a3.681 3.681 0 0 1 1.066-.255 4.231 4.231 0 0 1 2.668.631c.307.197.577.431.802.697.117-.25.274-.482.467-.69.44-.474 1.065-.826 1.798-.985.24-.053.495-.084.764-.092v-.002h.041l.1-.002v-.001h.012c.956.001 1.814.308 2.442.801.267.21.494.456.669.727.176-.27.402-.515.67-.727.629-.495 1.488-.801 2.446-.801l.044.003.099.002v.021-.023l.044.003c.256.01.499.041.727.09.734.161 1.358.512 1.797.986.194.208.351.442.468.692.224-.268.495-.502.802-.699a4.226 4.226 0 0 1 2.668-.63c.384.034.743.125 1.07.258.426.174.798.423 1.093.718-.534-3.428-3.924-7.15-7.016-10.54-1.323-1.455-2.595-2.848-3.58-4.152v.002a.404.404 0 0 1 .016-.507m4.405-3.703c-1.315 1.36-2.593 2.685-3.593 3.966.935 1.205 2.117 2.503 3.347 3.852 3.77 4.135 7.968 8.743 7.205 13.018l-.001.028a2.039 2.039 0 0 1-.146.597l-.373-.151.373.152a.404.404 0 0 1-.75-.295c.04-.142.072-.285.099-.427.018-.338-.099-.686-.317-.996a2.426 2.426 0 0 0-1.064-.82 2.945 2.945 0 0 0-.84-.2 3.41 3.41 0 0 0-2.162.507c-.472.304-.833.722-1.017 1.199a2.58 2.58 0 0 1-.05.37l-.268-.057-.006-.002.274.06a.403.403 0 0 1-.465.31l-.02-.003.002-.001h-.001v.003a.402.402 0 0 1-.348-.51c.021-.11.05-.218.085-.324.002-.435-.175-.84-.479-1.17-.33-.353-.81-.619-1.377-.745a3.464 3.464 0 0 0-.587-.074h-.033l-.094-.002h-.03c-.773 0-1.457.24-1.95.627-.414.328-.691.759-.762 1.234.005.054.01.11.01.164h.002a.158.158 0 0 1 0 .04v.034h.001a.402.402 0 0 1-.397.41H310.134a.404.404 0 0 1-.402-.404l.002-.044v-.03h.005-.007l.004-.044c.001-.042.005-.083.01-.126-.07-.475-.348-.906-.765-1.234-.492-.387-1.176-.627-1.948-.627v-.001l-.094.001-.03.002a3.204 3.204 0 0 0-.617.074c-.57.126-1.048.393-1.38.746-.3.326-.477.726-.479 1.155.041.122.074.246.097.374h.002a.402.402 0 0 1-.394.476l-.021.003a.403.403 0 0 1-.435-.335 2.426 2.426 0 0 1-.046-.363c-.187-.473-.547-.886-1.017-1.186a3.413 3.413 0 0 0-2.161-.508c-.3.028-.58.098-.837.202a2.413 2.413 0 0 0-1.066.82c-.21.296-.324.627-.32.955.032.176.07.351.115.526l.002-.001a.404.404 0 1 1-.77.236 2.142 2.142 0 0 1-.14-.587l-.005-.069c-.732-4.37 3.18-8.543 6.852-12.459 1.358-1.446 2.68-2.857 3.705-4.215-1.007-1.336-2.316-2.773-3.666-4.255-3.83-4.205-7.975-8.761-6.84-12.776.026-.108.059-.216.101-.32l.374.151-.374-.152a.404.404 0 0 1 .748.301c-.028.078-.05.153-.072.23-.011.05-.02.102-.025.152-.032.36.084.73.315 1.055.241.339.609.63 1.065.816.247.102.52.17.808.2l.031.002a3.411 3.411 0 0 0 2.159-.502c.47-.303.831-.718 1.018-1.19.007-.13.023-.256.051-.38l.154.03.02.006-.174-.038a.406.406 0 0 1 .45-.315l.022.002v.003-.003a.4.4 0 0 1 .378.426.328.328 0 0 1-.012.08 2.804 2.804 0 0 1-.092.345c.002.429.18.83.48 1.155.33.356.81.625 1.38.748.189.04.386.067.584.075h.033l.095.003.03-.001c.77 0 1.454-.241 1.946-.63.417-.326.694-.759.765-1.234a2.698 2.698 0 0 1-.012-.205v-.033h-.002a.4.4 0 0 1 .396-.408h.037c.222 0 .402.179.402.402l-.001.042-.002.033h.003l-.003.043-.01.124c.07.477.348.91.763 1.236.492.389 1.176.63 1.948.63v.001l.095-.001.028-.002h.002c.21-.005.418-.033.617-.075.559-.122 1.028-.379 1.356-.722l.023-.026.295.274-.294-.274c.306-.328.481-.734.48-1.17a3.256 3.256 0 0 1-.094-.363.402.402 0 0 1 .393-.475l.025-.002a.402.402 0 0 1 .425.338c.024.115.04.23.047.348.182.478.545.896 1.019 1.203a3.408 3.408 0 0 0 2.129.505l.03-.003.037.401-.036-.401c.295-.025.57-.094.823-.195l.018-.009v.002-.002l.002.002c.453-.185.82-.477 1.061-.818a1.62 1.62 0 0 0 .318-.885 6.168 6.168 0 0 0-.113-.582.4.4 0 0 1 .294-.487c.203-.05.41.065.477.259a2.106 2.106 0 0 1 .146.746c.643 4.557-3.3 8.64-6.966 12.434m-15.55-9.667a.404.404 0 0 1-.332-.436M403.748 32.996c0 8.747-3.549 16.667-9.284 22.4-5.735 5.732-13.66 9.278-22.412 9.278-8.751 0-16.676-3.546-22.411-9.278-5.736-5.733-9.283-13.653-9.283-22.4 0-8.75 3.547-16.67 9.283-22.402 5.735-5.734 13.66-9.28 22.411-9.28 8.753 0 16.677 3.546 22.412 9.28 5.737 5.733 9.284 13.652 9.284 22.402m-9.853 21.83c5.59-5.586 9.048-13.306 9.048-21.83 0-8.527-3.459-16.246-9.048-21.833-5.591-5.589-13.313-9.044-21.843-9.044-8.528 0-16.251 3.455-21.842 9.044-5.588 5.588-9.047 13.306-9.047 21.833 0 8.524 3.459 16.242 9.048 21.83 5.59 5.588 13.313 9.043 21.841 9.043 8.53 0 16.252-3.455 21.843-9.042"/>
        <path fill="#FFF" d="M399.977 32.996c0 7.706-3.126 14.685-8.18 19.736a27.844 27.844 0 0 1-19.744 8.175 27.839 27.839 0 0 1-19.745-8.175c-5.055-5.051-8.181-12.03-8.181-19.736 0-7.709 3.126-14.687 8.18-19.738a27.839 27.839 0 0 1 19.746-8.176 27.839 27.839 0 0 1 19.746 8.176 27.82 27.82 0 0 1 8.178 19.738m-8.749 19.165a27.013 27.013 0 0 0 7.943-19.165c0-7.486-3.035-14.263-7.943-19.17a27.034 27.034 0 0 0-19.175-7.939 27.035 27.035 0 0 0-19.178 7.941c-4.907 4.905-7.943 11.682-7.943 19.168 0 7.483 3.038 14.26 7.945 19.165a27.035 27.035 0 0 0 19.176 7.941 27.035 27.035 0 0 0 19.175-7.94"/>
        <path fill="#FFF" d="M372.456 5.484a.402.402 0 0 0-.806 0v55.021a.404.404 0 0 0 .805 0V5.484z"/>
        <path fill="#FFF" d="M348.417 18.891a.402.402 0 0 0-.403.696l47.672 27.511c.19.11.438.046.55-.146a.404.404 0 0 0-.148-.549l-47.67-27.512z"/>
        <path fill="#FFF" d="M348.015 46.403a.402.402 0 1 0 .403.695l47.67-27.511a.401.401 0 1 0-.403-.695l-47.67 27.511zM370.192 12.928c0 .733-.299 1.4-.781 1.88l-.284-.282.284.284-.023.023a2.666 2.666 0 0 1-3.743-.023l-.001-.002v.002l-.02-.02a2.656 2.656 0 0 1 .02-3.744 2.652 2.652 0 0 1 3.767 0c.482.482.78 1.148.78 1.882zm-1.35 1.315c.336-.336.544-.803.544-1.315a1.86 1.86 0 1 0-3.191 1.295l.018.018-.286.285.286-.283c.334.336.8.542 1.314.542.505 0 .964-.201 1.298-.526l.017-.018v.002zM387.866 16.037c0 .733-.3 1.4-.783 1.882a2.66 2.66 0 0 1-3.767 0 2.653 2.653 0 0 1-.78-1.882c0-.736.298-1.402.78-1.884.48-.48 1.147-.78 1.883-.78h.002a2.663 2.663 0 0 1 2.663 2.662h.002v.002zm-1.35 1.313a1.85 1.85 0 0 0 .544-1.313v-.002a1.859 1.859 0 0 0-1.86-1.857h-.001a1.855 1.855 0 0 0-1.858 1.859 1.855 1.855 0 0 0 1.858 1.857c.515 0 .98-.208 1.317-.544zM391.825 32.712c0 .735-.3 1.4-.784 1.882-.48.482-1.148.78-1.883.78-.734 0-1.4-.298-1.882-.78l.283-.284-.285.284a2.653 2.653 0 0 1-.78-1.882 2.664 2.664 0 0 1 2.665-2.664h.001c.735 0 1.4.299 1.883.78.482.48.78 1.148.78 1.882h.002v.002zm-1.35 1.313c.337-.334.545-.8.545-1.313v-.002a1.856 1.856 0 0 0-1.86-1.857h-.002a1.856 1.856 0 0 0-1.313 3.172l-.002.002a1.862 1.862 0 0 0 2.632-.002zM381.502 51.79c0 .733-.3 1.4-.782 1.88a2.656 2.656 0 0 1-1.883.781c-.734 0-1.4-.298-1.882-.78l-.023-.023a2.655 2.655 0 0 1 .023-3.74h-.002a2.664 2.664 0 0 1 1.884-.782h.002c.735 0 1.4.3 1.883.784.48.48.779 1.144.779 1.879h.001v.001zm-1.348 1.313c.335-.336.543-.801.543-1.313v-.001h.002a1.862 1.862 0 0 0-1.86-1.858h-.002c-.511 0-.977.209-1.313.545l-.286-.286.284.286a1.85 1.85 0 0 0-.543 1.314c0 .505.2.961.525 1.294l.02.018a1.865 1.865 0 0 0 2.63.002zM370.05 42.463c0 .733-.3 1.4-.782 1.88a2.656 2.656 0 0 1-1.883.781c-.735 0-1.4-.298-1.883-.78l-.023-.023a2.661 2.661 0 0 1 1.906-4.523h.001c.735 0 1.401.3 1.883.782.48.482.78 1.147.78 1.882v.001zm-1.348 1.312c.334-.333.541-.8.541-1.312v-.001h.003a1.855 1.855 0 0 0-1.86-1.859h-.001a1.854 1.854 0 0 0-1.857 1.86c0 .505.2.961.523 1.294l.022.018a1.857 1.857 0 0 0 2.629 0zM355.064 36.951c0 .735-.298 1.4-.78 1.88l-.284-.28.284.282-.023.023a2.66 2.66 0 0 1-3.745-.023 2.65 2.65 0 0 1-.782-1.882c0-.736.298-1.401.78-1.883a2.654 2.654 0 0 1 1.885-.782h.002c.734 0 1.4.3 1.883.784.48.48.779 1.145.779 1.88h.001v.001zm-1.35 1.315c.337-.334.545-.801.545-1.315v-.001h.002c0-.512-.21-.979-.547-1.317a1.855 1.855 0 0 0-1.313-.542h-.002c-.512 0-.979.208-1.315.546a1.854 1.854 0 0 0-.545 1.314 1.861 1.861 0 0 0 3.159 1.331l.016-.016zM370.192 54.473c0 .733-.299 1.4-.781 1.882a2.659 2.659 0 0 1-1.884.784v-.002a2.671 2.671 0 0 1-2.664-2.664 2.661 2.661 0 0 1 2.663-2.66c.737 0 1.401.298 1.883.778.484.482.783 1.148.783 1.882m-1.35 1.317a1.865 1.865 0 0 0 .001-2.63 1.857 1.857 0 0 0-1.316-.544 1.856 1.856 0 0 0-1.859 1.857 1.861 1.861 0 0 0 1.859 1.863v-.002c.514 0 .979-.208 1.315-.544M390.412 48.82c0 .735-.3 1.402-.784 1.886a2.662 2.662 0 0 1-3.769-.003 2.653 2.653 0 0 1 0-3.763h.001l-.001-.001.021-.02c.48-.47 1.14-.76 1.863-.76.736 0 1.402.298 1.885.78.483.482.784 1.149.784 1.882m-1.35 1.316c.336-.334.544-.802.544-1.316a1.854 1.854 0 0 0-1.863-1.858c-.505 0-.963.2-1.297.527l-.018.018-.284-.286.284.286c-.336.334-.545.8-.545 1.313a1.859 1.859 0 0 0 1.86 1.862c.515 0 .983-.21 1.319-.546M381.787 21.125c0 .733-.299 1.4-.782 1.88a2.66 2.66 0 0 1-3.768 0 2.66 2.66 0 0 1 0-3.764 2.65 2.65 0 0 1 1.883-.782c.736 0 1.402.299 1.885.78.483.484.782 1.15.782 1.886m-1.348 1.313a1.859 1.859 0 0 0-.004-2.63 1.855 1.855 0 0 0-2.629-.001 1.86 1.86 0 0 0-.544 1.318 1.85 1.85 0 0 0 1.858 1.855c.515 0 .982-.208 1.319-.542M365.528 21.83c0 .732-.299 1.4-.78 1.88a2.659 2.659 0 0 1-3.77.003 2.657 2.657 0 0 1 .002-3.766 2.663 2.663 0 0 1 3.766 0 2.65 2.65 0 0 1 .782 1.882m-1.35 1.317a1.864 1.864 0 0 0 .002-2.63 1.86 1.86 0 0 0-1.317-.544c-.515 0-.981.208-1.317.542a1.86 1.86 0 0 0 1.317 3.176c.513 0 .979-.208 1.315-.544M357.48 20.044l-.023-.006a2.66 2.66 0 0 1-1.715-3.323h-.002l.008-.023a2.666 2.666 0 0 1 3.34-1.726c.211.067.33.293.264.506l-.005.01-1.358 4.301a.405.405 0 0 1-.507.263l-.002-.002zm-.844-1.679c.16.309.406.573.718.751l1.094-3.462a1.855 1.855 0 0 0-1.932 1.282l-.002.003-.005.015c-.152.487-.092.992.127 1.411zM379.409 13.71l-.025.024a2.67 2.67 0 0 1-1.851.765v.002c-.015 0-.028 0-.041-.002a2.655 2.655 0 0 1-1.847-.762l.28-.287-.282.287-.001-.002-.01-.01-.005-.006-.01-.008a2.666 2.666 0 0 1-.003-3.741l-.002-.002a.402.402 0 0 1 .57-.005l.02.023 3.204 3.153-.28.285.281-.287c.158.157.16.412.004.57l-.002.002zm-1.883-.012c.348-.002.696-.102.999-.299l-2.59-2.55a1.874 1.874 0 0 0-.283 1.004c.003.466.183.935.534 1.289l.004.003.02.018v.004c.357.35.82.526 1.285.53h.031zM383.224 34.768l-.006.005-.025.024a2.665 2.665 0 0 1-3.726 0v.002l-.004-.003-.004-.007-.004-.002-.023-.024a2.64 2.64 0 0 1-.766-1.851c-.005-.679.251-1.36.765-1.884l-.002-.001.002-.002.003-.002.013-.013a.4.4 0 0 1 .556.013l.021.022 3.197 3.15-.282.287.284-.288c.157.157.159.411.003.57l-.002.004zm-1.88-.012c.348-.003.694-.103.996-.3l-2.586-2.55a1.856 1.856 0 0 0 .247 2.288l.025.023.002.003.006.007h-.001c.364.357.84.533 1.312.53zM389.52 27.195l.008-.023A2.656 2.656 0 0 1 390.9 25.7a2.672 2.672 0 0 1 2.034-.084l.002.002-.136.378.136-.38m-1.698.815c-.316.146-.59.38-.784.682l3.41 1.254a1.868 1.868 0 0 0-.156-1.031 1.85 1.85 0 0 0-1.03-.958l-.015-.005h-.003v-.001a1.86 1.86 0 0 0-1.422.059m1.704-.813l.017.008h.001a.404.404 0 0 1 .218.511m-.22-.511c.681.254 1.196.76 1.48 1.374.285.616.336 1.342.084 2.032l-.378-.137.38.14-.002.004-.007.016a.405.405 0 0 1-.513.22l-.012-.005-4.231-1.556.138-.377-.138.377a.4.4 0 0 1-.24-.516v-.002M389.808 39.474a2.658 2.658 0 0 1 1.374-1.478 2.661 2.661 0 0 1 2.036-.086l-.137.378.138-.378.023.009a2.658 2.658 0 0 1 1.478 1.375c.285.618.336 1.346.083 2.035h.002a.332.332 0 0 1-.033.068l-.001.002-.015.021-.002.004-.003.003-.023.03v.001a.403.403 0 0 1-.456.103l-4.231-1.552.137-.377-.139.377a.4.4 0 0 1-.238-.515l.007-.02zm1.71-.749a1.866 1.866 0 0 0-.782.682l3.41 1.253a1.865 1.865 0 0 0-1.19-1.989l-.035-.015a1.864 1.864 0 0 0-1.403.07zM357.18 50.013l-.003-.023a2.665 2.665 0 0 1 2.236-3.001v-.002h.003l.008-.002.023-.003c.715-.1 1.41.097 1.95.497a2.638 2.638 0 0 1 1.05 1.738l.002.006a.4.4 0 0 1-.337.457l-.013.004-4.459.669v.001a.405.405 0 0 1-.46-.34zm1.139-1.498a1.85 1.85 0 0 0-.358.977l3.589-.54a1.834 1.834 0 0 0-.63-.827 1.843 1.843 0 0 0-1.358-.345l-.015.002-.011.002-.06-.4.058.4c-.505.075-.931.35-1.215.73zM347.935 28.817c-.1-.716.099-1.41.499-1.952a2.66 2.66 0 0 1 1.727-1.05l.016-.003h.002l.02-.003a2.658 2.658 0 0 1 1.96.497 2.65 2.65 0 0 1 1.048 1.726.403.403 0 0 1-.317.474m-3.812-1.163a1.859 1.859 0 0 0-.359.972l3.592-.537a1.85 1.85 0 0 0-1.998-1.172l-.014.001-.061-.397.059.397a1.859 1.859 0 0 0-1.219.736m3.792 1.166l-.021.001-4.453.67a.404.404 0 0 1-.457-.34l-.004-.023M362.827 30.364a2.656 2.656 0 0 1 .366 3.723c-.464.572-1.115.9-1.793.97a2.663 2.663 0 0 1-1.954-.579v.002a.403.403 0 0 1-.06-.567l.022-.025 2.83-3.487h-.001c.14-.172.394-.2.566-.059l.024.022zm.148 1.854a1.855 1.855 0 0 0-.394-.964l-2.29 2.82c.324.16.681.22 1.027.185a1.855 1.855 0 0 0 1.657-2.041zM375.661 41.62l.013-.035a2.656 2.656 0 0 1 3.395-1.557m-1.687.815a1.85 1.85 0 0 0-.783.683l3.409 1.253a1.865 1.865 0 0 0-.156-1.03 1.845 1.845 0 0 0-1.03-.954l-.022-.008a1.86 1.86 0 0 0-1.418.056m1.719-.802c.682.254 1.197.76 1.48 1.372.286.617.337 1.34.086 2.028l-.377-.138.377.138-.003.011a.405.405 0 0 1-.517.237l-.02-.01-4.223-1.551.138-.377-.138.379a.405.405 0 0 1-.243-.51M367.847 21.53a2.65 2.65 0 0 1 1.65 1.149c.37.574.525 1.287.37 2.005a2.656 2.656 0 0 1-1.156 1.678 2.655 2.655 0 0 1-2.004.374l.084-.393-.084.393a.402.402 0 0 1-.31-.477l.005-.024.94-4.402.393.082-.393-.082a.405.405 0 0 1 .477-.312l.028.009zm.977 1.587a1.864 1.864 0 0 0-.789-.68l-.759 3.553a1.863 1.863 0 0 0 1.548-2.874zM532.025 29.022v24.284h3.93v.804h-8.665v-.804h3.93V29.022c-3.403-.21-6.455-3.057-8.664-7.557-2.256-4.59-3.65-10.922-3.65-17.905v-.404h25.435v.404c0 6.983-1.396 13.314-3.65 17.906-2.209 4.5-5.26 7.348-8.666 7.556zm-12.312-25.06c.015 1.83.125 3.61.323 5.324h23.173c.198-1.713.31-3.494.325-5.325h-23.82zm.423 6.129c.565 4.234 1.663 8.015 3.14 11.021 2.16 4.397 5.113 7.118 8.348 7.118 3.235 0 6.186-2.721 8.348-7.116 1.476-3.007 2.574-6.789 3.139-11.023h-22.975z"/>
        <g transform="translate(432.98 -.339)">
            <mask id="b" fill="#fff">
                <use xlink:href="#a"/>
            </mask>
            <path fill="#FFF" d="M1.21 20.445a.4.4 0 0 0 .402.402.402.402 0 0 0 .403-.402V1.38a.403.403 0 0 0-.805 0v19.065z" mask="url(#b)"/>
        </g>
        <path fill="#FFF" d="M447.502 25.44h-24.96v12.494a.438.438 0 0 1 .013.105c0 .017-.002.033-.004.051l-.011.195h.002c0 2.013.467 3.918 1.299 5.603a12.64 12.64 0 0 0 3.545 4.361h15.271a12.622 12.622 0 0 0 3.546-4.36 12.636 12.636 0 0 0 1.299-5.604v-.016l-.01-.213h-.002a.403.403 0 0 1 .012-.11V25.44zm-25.364-.804H447.904c.223 0 .403.179.403.402v13.001a.445.445 0 0 1-.008.08l.005.117a.495.495 0 0 1 .003.05 13.442 13.442 0 0 1-5.245 10.668.412.412 0 0 1-.269.1H427.25a.395.395 0 0 1-.244-.082h.002a13.425 13.425 0 0 1-5.272-10.675v-.033h.002l.007-.14a.47.47 0 0 1-.009-.085V25.038a.4.4 0 0 1 .402-.402zm.413 13.454a.386.386 0 0 1-.082.195l.082-.195z"/>
        <path fill="#FFF" d="M457.51 33.378a5.052 5.052 0 0 1-1.482 3.58l-.026.023a5.05 5.05 0 0 1-3.556 1.46 5.046 5.046 0 0 1-3.58-1.482l-.023-.025a5.047 5.047 0 0 1-1.463-3.554c0-1.399.567-2.664 1.484-3.58a5.055 5.055 0 0 1 3.582-1.486h.002a5.057 5.057 0 0 1 5.061 5.063h.002v.001zm-2.053 3.012a4.246 4.246 0 0 0 1.248-3.012v-.001h.002c0-1.176-.477-2.24-1.25-3.012a4.245 4.245 0 0 0-3.01-1.246 4.25 4.25 0 0 0-3.014 1.246 4.251 4.251 0 0 0-1.248 3.015c0 1.165.47 2.221 1.229 2.988l.02.022a4.252 4.252 0 0 0 3.012 1.246 4.24 4.24 0 0 0 2.99-1.225l.021-.021zM449.254 54.491h-28.221a.398.398 0 0 1-.378-.267l-2.203-5.421v.001a.4.4 0 0 1 .221-.524.383.383 0 0 1 .151-.031H451.463a.405.405 0 0 1 .366.572l-2.2 5.42-.375-.151.376.15a.407.407 0 0 1-.376.251zm-27.95-.803h27.68l1.88-4.633h-31.441l1.881 4.633zM432.131 7.663a.403.403 0 1 0-.805 0v15.316a.402.402 0 1 0 .805 0V7.663zM437.88 3.354a.402.402 0 0 0-.404-.401.4.4 0 0 0-.402.401v15.318a.403.403 0 0 0 .805 0V3.354zM429.498 11.49a.403.403 0 1 0-.805 0v8.138a.403.403 0 0 0 .805 0V11.49zM440.272 14.364a.402.402 0 1 0-.805 0v8.134c0 .223.18.402.403.402a.4.4 0 0 0 .402-.402v-8.134zM609.597 35.68a4.759 4.759 0 0 1-.103.98c.01.092.016.188.016.284a.508.508 0 0 1-.018.125l-3.85 15.465a2.308 2.308 0 0 1-.65 1.568 2.193 2.193 0 0 1-1.581.677v-.002h-44.412v.002a2.185 2.185 0 0 1-1.579-.679 2.311 2.311 0 0 1-.65-1.566l-3.857-15.493h-.002a.496.496 0 0 1-.01-.097v-.005c.002-.513.166-.988.445-1.37.074-3.179 3.259-6.02 8.374-8.051 5.063-2.013 12.047-3.257 19.752-3.257 7.703 0 14.688 1.244 19.751 3.257 5.173 2.056 8.374 4.94 8.374 8.162zm-.908 1.046l-.003-.03-.002-.007-.005-.025-.002-.007-.005-.034-.003-.021a7.095 7.095 0 0 0-.024-.092l-.007-.02-.008-.024v-.002a2.4 2.4 0 0 0-.03-.084l-.005-.016-.008-.018-.005-.012-.013-.026-.015-.034-.016-.031a1.443 1.443 0 0 0-.256-.36 1.408 1.408 0 0 0-.679-.393l-.013-.001a1.019 1.019 0 0 0-.075-.017l-.04-.006-.024-.004-.035-.003-.013-.002-.018-.001-.023-.002-.026-.002H555.112c-.027 0-.055.002-.083.004l-.028.001-.007.002-.016.002-.008.001h-.004l-.013.002-.028.005-.024.003h-.007a1.386 1.386 0 0 0-.526.212l-.025.02h-.005l-.008.007c-.1.071-.19.155-.27.251l-.002.002 54.63.762zm-1.407-2.078h.03l.048.001c.064.002.128.007.19.015l.024.003c.454.063.866.266 1.192.567-.295-2.686-3.234-5.14-7.84-6.97-4.97-1.975-11.85-3.198-19.454-3.198-7.607 0-14.485 1.223-19.457 3.198-4.379 1.74-7.252 4.043-7.777 6.575.212-.095.44-.157.678-.18l.003-.002.116-.008h.018l.08-.001h52.149zm-52.388.824c-.124.023-.24.06-.35.112l.35-.112zm-.836.492v.002l-.015.014a1.53 1.53 0 0 0-.336.92l3.85 15.462c.01.038.019.08.019.125 0 .413.162.787.421 1.057.256.266.612.43 1.002.43v.001h44.412v-.001c.392 0 .748-.163 1.004-.43.259-.269.421-.64.421-1.054v-.003c0-.033.005-.066.012-.098h.001l3.856-15.487a1.245 1.245 0 0 0-.016-.176l-54.631-.762zM505.896 32.443l-31.875 6.93v6.164l31.875-5.958v-7.136zm-31.875 6.107l31.01-6.743a33.965 33.965 0 0 0-1.823-.711 49.298 49.298 0 0 0-3.247-1.033c-.25.525-.632.977-1.1 1.311a3.396 3.396 0 0 1-5.37-2.767v-.054a82.085 82.085 0 0 0-1.844-.328c-.728-.12-1.233-.19-1.445-.216-2.124 1.346-3.27 2.077-4.328 2.75-2.91 1.853-5.529 3.52-11.853 7.488v.303zm32.68-6.607V48.21l-.31.072c-5.676 1.33-11.616 2.452-17.555 3.579-4.914.93-9.83 1.86-14.626 2.913l-.036.01-.05-.002h-.505l-.403.002V37.805l.189-.12c6.566-4.119 9.158-5.77 12.038-7.6a1847.41 1847.41 0 0 1 4.441-2.827l.1-.062h.117c.088 0 .71.078 1.674.236.622.103 1.38.236 2.217.4l.371.07-.047.372c-.007.064-.014.12-.015.164v.002a2.582 2.582 0 0 0 .754 2c.47.469 1.119.759 1.835.759a2.59 2.59 0 0 0 2.452-1.75l.123-.358.366.101a51.36 51.36 0 0 1 3.648 1.15c1.056.378 2.071.791 2.996 1.24l.226.11v.251zm-.805 15.63v-7.176l-31.875 5.958v7.624h.054c4.757-1.044 9.685-1.977 14.613-2.91 5.814-1.101 11.63-2.201 17.208-3.496z"/>
        <path fill="#FFF" d="M496.89 25.21c.935 0 1.786.379 2.401.994h.002a3.39 3.39 0 0 1 .995 2.403c0 .938-.38 1.787-.995 2.402h-.002a3.392 3.392 0 0 1-4.805 0 3.385 3.385 0 0 1-.996-2.402c0-.938.38-1.788.996-2.403a3.388 3.388 0 0 1 2.404-.994zm1.834 1.563a2.59 2.59 0 0 0-1.834-.758 2.589 2.589 0 0 0-2.594 2.592c0 .716.29 1.364.759 1.833.469.47 1.118.759 1.835.759.717 0 1.365-.289 1.834-.76a2.59 2.59 0 0 0 0-3.666z"/>
        <g transform="translate(182.049 83.268)">
            <mask id="d" fill="#fff">
                <use xlink:href="#c"/>
            </mask>
            <path fill="#FFF" d="M1.202 14.595V3.371h4.235c.825 0 1.512.175 2.061.524.55.35.965.782 1.245 1.3.28.518.418 1.08.414 1.689a3.65 3.65 0 0 1-.414 1.687c-.269.52-.679.952-1.228 1.3-.55.349-1.237.523-2.062.523H2.14v4.201h-.937zM5.437 9.46c.623 0 1.145-.13 1.563-.388.416-.26.726-.579.926-.96.202-.38.302-.794.302-1.243 0-.45-.105-.864-.316-1.246a2.648 2.648 0 0 0-.937-.951c-.411-.253-.925-.374-1.538-.362H2.139v5.15h3.298zm15.535 5.136h-.983l-1.35-3.74h-4.82l-1.317 3.74h-.982l4.028-11.224h1.364l4.06 11.224zm-6.82-4.677h4.155L16.23 4.07l-2.078 5.85zm10.35-3.85c-.034.401.03.727.19.982.157.254.38.463.665.626.286.164.617.293.99.388.376.095.77.18 1.182.254.487.095.97.204 1.451.325.48.121.912.307 1.294.554.38.25.682.58.904.992.221.411.316.95.285 1.616-.021.499-.15.928-.388 1.292-.238.366-.543.67-.912.92-.371.249-.79.433-1.262.554a5.71 5.71 0 0 1-1.451.183c-.422 0-.84-.045-1.253-.134a4.744 4.744 0 0 1-1.158-.413 4.218 4.218 0 0 1-.966-.68 2.88 2.88 0 0 1-.666-.946l.856-.379c.115.274.286.513.507.713.222.202.479.367.77.498.29.133.603.235.936.302a4.834 4.834 0 0 0 2.093-.023c.354-.085.67-.213.95-.38.281-.17.51-.382.691-.635.179-.254.286-.555.317-.903.03-.465-.038-.846-.207-1.143a1.974 1.974 0 0 0-.713-.72 3.923 3.923 0 0 0-1.063-.435c-.4-.107-.818-.207-1.253-.302a29.354 29.354 0 0 1-1.371-.316 4.291 4.291 0 0 1-1.206-.508 2.524 2.524 0 0 1-.848-.873c-.211-.359-.306-.83-.285-1.41.01-.475.13-.89.356-1.244.228-.355.521-.65.88-.888.36-.238.77-.418 1.23-.54a5.651 5.651 0 0 1 2.649-.048c.407.09.788.222 1.14.398.356.173.67.393.945.657.276.264.49.572.65.92l-.84.38a1.996 1.996 0 0 0-.5-.69 3.107 3.107 0 0 0-.745-.492 3.94 3.94 0 0 0-.904-.292 5.01 5.01 0 0 0-2.047.023c-.342.079-.652.2-.928.358a2.151 2.151 0 0 0-.674.601c-.174.244-.272.53-.292.858zm18.055-1.792h-3.743v10.32h-.936V4.275h-3.743V3.37h8.422v.905zm11.521 10.32h-.982l-1.348-3.742h-4.822l-1.315 3.741h-.984l4.028-11.224h1.364l4.06 11.224zm-6.82-4.678h4.155L49.337 4.07l-2.078 5.85zm42.902 4.677V3.371h4.235c.823 0 1.512.175 2.061.524.55.35.965.782 1.245 1.3.28.518.418 1.08.412 1.689A3.668 3.668 0 0 1 97.7 8.57c-.27.52-.679.952-1.23 1.3-.55.349-1.237.523-2.06.523h-3.315v4.201h-.936zm4.235-5.136c.623 0 1.144-.13 1.561-.388.418-.26.727-.579.928-.96.2-.38.3-.794.3-1.243 0-.45-.105-.864-.316-1.246a2.622 2.622 0 0 0-.937-.951c-.411-.253-.923-.374-1.536-.362h-3.299v5.15h3.299zm7.224 5.136h.935V3.371h-.935v11.224zm4.59-11.224h7.71l.332.715-6.995 9.575h6.836v.934h-7.882l-.286-.713 6.994-9.573h-6.708V3.37zm10.888 0h7.708l.333.715-6.993 9.575h6.834v.934h-7.882l-.286-.713 6.994-9.573h-6.708V3.37zm19.786 11.224h-.985l-1.348-3.74h-4.82l-1.317 3.74h-.984l4.028-11.224h1.365l4.06 11.224zm-6.822-4.677h4.156L132.14 4.07l-2.078 5.85zm42.585-3.296c0-.56.12-1.054.364-1.484a3.35 3.35 0 0 1 .96-1.069c.397-.285.846-.5 1.348-.64a5.637 5.637 0 0 1 2.72-.09c.391.086.757.21 1.095.373.337.164.64.374.911.626.27.254.484.55.643.889l-.841.411v.016a2.116 2.116 0 0 0-.508-.657 3.167 3.167 0 0 0-.72-.469c-.271-.126-.56-.22-.866-.283a4.445 4.445 0 0 0-.935-.095c-.402 0-.799.052-1.19.159-.391.103-.737.26-1.04.467-.3.205-.544.46-.729.769a2.056 2.056 0 0 0-.277 1.077v4.724c0 .413.093.774.277 1.087.185.31.428.569.73.776.302.204.648.359 1.04.46.39.099.787.15 1.189.15.318 0 .628-.032.935-.094.306-.064.595-.16.866-.287.269-.126.508-.284.72-.467.213-.185.382-.405.508-.66l.841.412c-.159.34-.375.636-.65.889a3.821 3.821 0 0 1-.927.634c-.345.17-.712.297-1.104.382a5.678 5.678 0 0 1-2.728-.087 4.205 4.205 0 0 1-1.331-.644 3.292 3.292 0 0 1-.945-1.06c-.238-.424-.356-.92-.356-1.49V6.621zm19.768 7.973h-.982l-1.349-3.74h-4.82l-1.317 3.74h-.984l4.028-11.224h1.365l4.059 11.224zm-6.82-4.677h4.156l-2.078-5.849-2.078 5.85zm10.841-5.61v4.533h5.344v.936h-5.344v4.818h-.936V3.371h7.026v.938h-6.09zm10.54 0v4.533h5.345v.936h-5.345v4.818h-.937V3.371h7.026v.938h-6.09zm11.6-3.488h1.27l1.11 1.79h-.92l-1.46-1.79zm-1.061 7.689h5.628v.95h-5.628v4.202h6.104v.934h-7.04V3.371h7.04v.938h-6.104v4.2zm42.82 6.086V3.371h4.235c.823 0 1.512.175 2.062.524.55.35.964.782 1.245 1.3.28.518.418 1.08.413 1.689a3.69 3.69 0 0 1-.413 1.687c-.27.52-.68.952-1.229 1.3-.55.349-1.238.523-2.061.523h-3.317v4.201h-.935zm4.235-5.136c.623 0 1.143-.13 1.562-.388.418-.26.728-.579.928-.96.202-.38.3-.794.3-1.243 0-.45-.105-.864-.317-1.246a2.63 2.63 0 0 0-.934-.951c-.414-.253-.925-.374-1.539-.362h-3.3v5.15h3.3zm15.535 5.136h-.984l-1.348-3.74h-4.822l-1.315 3.74h-.984l4.028-11.224h1.364l4.061 11.224zm-6.82-4.677h4.155L275.36 4.07l-2.076 5.85zm17.39 3.648V3.37h.935v11.224h-1.396l-6.09-9.782v9.782h-.934V3.371h1.141l6.344 10.195zm5.18 1.03h.934V3.37h-.934v11.224zm12.661-1.03V3.37h.937v11.224h-1.396l-6.09-9.782v9.782h-.936V3.371h1.143l6.342 10.195zm5.18 1.03h.934V3.37h-.935v11.224zm37.016-11.24h.982l3.76 10.541 3.727-10.54h.983l-4.028 11.238h-1.381L350.71 3.356zm12.537 11.24h.935V3.37h-.935v11.224zm12.664-1.03V3.37h.935v11.224h-1.395l-6.09-9.782v9.782h-.937V3.371h1.144l6.343 10.195zm4.845-6.897c0-.57.126-1.072.38-1.506a3.44 3.44 0 0 1 1.008-1.086 4.425 4.425 0 0 1 1.428-.649 6.324 6.324 0 0 1 3.266 0c.534.141 1.01.358 1.428.65.417.291.753.652 1.005 1.085.255.434.383.936.383 1.506v4.628c0 .572-.128 1.075-.383 1.507a3.365 3.365 0 0 1-1.005 1.085 4.535 4.535 0 0 1-1.428.652 6.258 6.258 0 0 1-1.626.213c-.559 0-1.107-.07-1.64-.213a4.502 4.502 0 0 1-1.428-.652 3.388 3.388 0 0 1-1.007-1.085c-.255-.432-.38-.935-.38-1.507V6.669zm.935 4.628a2 2 0 0 0 .302 1.103c.202.312.469.574.8.786.333.211.71.368 1.127.475a5.33 5.33 0 0 0 2.578 0 3.732 3.732 0 0 0 1.124-.475c.33-.212.593-.474.795-.786.2-.311.3-.68.3-1.103V6.669c0-.442-.1-.824-.3-1.14a2.449 2.449 0 0 0-.802-.786 3.599 3.599 0 0 0-1.135-.45 5.788 5.788 0 0 0-1.299-.143c-.435 0-.86.049-1.276.15a3.66 3.66 0 0 0-1.12.46c-.326.206-.59.467-.792.785-.2.316-.302.69-.302 1.124v4.628zm51.133-2.679c.654.233 1.11.599 1.363 1.094.254.498.38 1.085.38 1.76-.01.582-.113 1.071-.308 1.466-.195.397-.46.72-.794.967a3.138 3.138 0 0 1-1.18.531 6.468 6.468 0 0 1-1.477.16h-4.248V3.37h4.264c.435 0 .847.059 1.237.175.392.117.733.292 1.024.523.291.233.52.528.69.889.169.359.253.777.253 1.252 0 .507-.089.972-.27 1.394-.178.423-.491.76-.934 1.014zm-2-.442c.328 0 .634-.036.914-.104a1.94 1.94 0 0 0 .728-.34 1.61 1.61 0 0 0 .484-.612c.116-.248.174-.55.174-.91 0-.359-.06-.662-.182-.903a1.557 1.557 0 0 0-.492-.587 1.97 1.97 0 0 0-.73-.318 4.013 4.013 0 0 0-.896-.093h-3.329v3.867h3.33zm0 5.485c.414.01.793-.016 1.135-.08.343-.063.638-.18.89-.35.247-.168.439-.395.577-.68.137-.287.206-.65.206-1.093 0-.446-.067-.817-.198-1.12-.131-.3-.32-.544-.563-.728a2.206 2.206 0 0 0-.88-.388 5.565 5.565 0 0 0-1.167-.112h-3.329v4.551h3.33zm7.415.934h.937V3.371h-.937v11.224zm8.319-4.755h-2.205v4.755h-.936V3.371h4.235c.528 0 1.02.06 1.474.183.456.122.85.315 1.183.58.333.263.597.6.792 1.012.197.413.298.91.31 1.492 0 .58-.102 1.075-.302 1.482a2.677 2.677 0 0 1-.817.99c-.344.256-.74.44-1.189.556-.45.115-.928.174-1.435.174h-.033l3.76 4.755h-1.157l-3.68-4.755zm1.11-.856c.433 0 .822-.04 1.166-.12.343-.078.637-.208.88-.387.242-.18.429-.42.562-.723.134-.3.2-.673.2-1.116 0-.444-.069-.815-.207-1.11a1.818 1.818 0 0 0-.579-.715 2.425 2.425 0 0 0-.889-.386 4.971 4.971 0 0 0-1.133-.118h-3.315v4.675h3.315zm10.428.856h-2.206v4.755h-.935V3.371h4.235c.528 0 1.02.06 1.474.183.456.122.85.315 1.183.58.332.263.597.6.793 1.012.196.413.297.91.309 1.492 0 .58-.1 1.075-.302 1.482a2.693 2.693 0 0 1-.817.99c-.344.256-.74.44-1.189.556-.45.115-.928.174-1.435.174h-.033l3.76 4.755h-1.159l-3.678-4.755zm1.11-.856c.433 0 .822-.04 1.166-.12.343-.078.635-.208.88-.387.242-.18.43-.42.563-.723.132-.3.199-.673.199-1.116 0-.444-.069-.815-.207-1.11a1.794 1.794 0 0 0-.58-.715 2.43 2.43 0 0 0-.888-.386 4.971 4.971 0 0 0-1.133-.118h-3.316v4.675h3.316zm15.599 5.611h-.984l-1.348-3.74h-4.822l-1.317 3.74h-.983l4.028-11.224h1.365l4.06 11.224zm-6.821-4.677h4.156l-2.078-5.849-2.078 5.85z" mask="url(#d)"/>
        </g>
    </g>
</svg>
