<svg xmlns="http://www.w3.org/2000/svg" width="110" height="33" viewBox="0 0 110 33">
    <g fill="#FFFFFE" fill-rule="evenodd">
        <path d="M92.913 16.698c0 .504.133.937.4 1.299.267.361.614.662 1.04.903.427.242.918.422 1.473.543.555.12 1.12.18 1.696.18a7.14 7.14 0 0 0 1.681-.196 5.913 5.913 0 0 0 1.473-.56 3.05 3.05 0 0 0 1.04-.904c.256-.361.384-.783.384-1.265V8.249c0-.503-.133-.942-.4-1.315a3.184 3.184 0 0 0-1.04-.92 5.22 5.22 0 0 0-1.473-.542 7.955 7.955 0 0 0-1.696-.182c-.577 0-1.136.066-1.68.198a5.634 5.634 0 0 0-1.457.559 3.186 3.186 0 0 0-1.041.92c-.267.373-.4.8-.4 1.282v8.449zM88.24 8.249c0-1.292.266-2.427.8-3.402a7.488 7.488 0 0 1 2.096-2.433c.865-.646 1.857-1.128 2.978-1.446A12.427 12.427 0 0 1 97.522.49c1.153 0 2.29.164 3.41.493 1.12.33 2.113.816 2.977 1.463a7.533 7.533 0 0 1 2.097 2.417c.533.964.8 2.093.8 3.385v8.449c0 1.293-.267 2.421-.8 3.386a7.529 7.529 0 0 1-2.097 2.416 9.28 9.28 0 0 1-2.977 1.463 12.06 12.06 0 0 1-3.41.492c-1.152 0-2.288-.158-3.408-.476a9.022 9.022 0 0 1-2.978-1.447A7.485 7.485 0 0 1 89.04 20.1c-.533-.975-.8-2.11-.8-3.402V8.249zM80.054 24.063h4.991V.688h-4.99zM75.328.688l1.333 2.211-11.473 16.805h11.017v4.358H59.631l-1.137-2.211L69.965 5.178H59.111V.688zM44.503 14.256h4.392l-1.453-5.084-.712-3.335h-.225l-.71 3.368-1.292 5.051zm12.593 9.806h-4.973l-2.002-5.348h-6.813l-1.905 5.349h-5.07L44.343.688h4.553l8.201 23.375zM29.073 12.276c.783 0 1.436-.165 1.958-.495.523-.33.914-.743 1.176-1.238a3.42 3.42 0 0 0 .392-1.619c0-.583-.132-1.121-.392-1.617a3.259 3.259 0 0 0-1.176-1.238c-.522-.33-1.175-.495-1.958-.495H24.73v6.702h4.343zM19.963.688h9.11c1.85 0 3.384.401 4.603 1.204 1.219.804 2.133 1.805 2.742 3.005.61 1.2.914 2.492.914 3.88 0 1.386-.31 2.679-.93 3.878-.62 1.2-1.54 2.196-2.759 2.988-1.219.793-2.73 1.19-4.538 1.19H24.73v7.23h-4.766V.688zM3.654 16.83a4.993 4.993 0 0 0 2.173 1.89c.923.428 1.839.653 2.75.674.91.022 1.712-.17 2.403-.574.692-.406 1.06-1.014 1.103-1.825.022-.504-.088-.915-.329-1.233a2.809 2.809 0 0 0-.972-.79 5.463 5.463 0 0 0-1.448-.475c-.56-.11-1.136-.209-1.729-.297a14.63 14.63 0 0 1-2.716-.656 7.592 7.592 0 0 1-2.37-1.316c-.692-.57-1.252-1.293-1.68-2.17C.412 9.182.21 8.097.232 6.804c.065-1.096.35-2.066.855-2.91a6.945 6.945 0 0 1 1.926-2.103A8.572 8.572 0 0 1 5.663.526 10.979 10.979 0 0 1 8.725.098c1.515 0 2.957.318 4.33.953 1.371.636 2.551 1.688 3.539 3.156L12.61 6.87c-.505-.767-1.086-1.326-1.745-1.677a4.484 4.484 0 0 0-2.14-.526c-.461 0-.9.044-1.317.132-.417.087-.79.225-1.12.411-.329.186-.592.427-.79.723-.198.296-.307.64-.33 1.036v.033c0 .481.116.865.347 1.15.23.285.532.52.905.707.373.186.802.328 1.284.427.483.098.977.202 1.481.312 1.01.197 1.993.449 2.947.757.955.306 1.8.75 2.535 1.33a6.13 6.13 0 0 1 1.746 2.22c.428.899.608 2.038.543 3.418-.11 1.096-.428 2.06-.955 2.894a7.25 7.25 0 0 1-2.025 2.103 9.42 9.42 0 0 1-2.765 1.299 11.14 11.14 0 0 1-3.112.444c-1.515 0-2.995-.368-4.445-1.101C2.206 22.227.987 21.115 0 19.625l3.654-2.795M35.336 32.813h.43v-5.411h-.43v5.41zm5.211.06c-.228.042-.426.037-.593-.01a.926.926 0 0 1-.415-.241 1.07 1.07 0 0 1-.248-.429 1.873 1.873 0 0 1-.084-.58v-3.661h.357l.05.902h.817v.382h-.816v2.377c0 .138.015.266.043.386.03.12.081.222.154.305a.597.597 0 0 0 .287.18c.12.035.268.038.448.008v.382zm5.212-2.835a.744.744 0 0 0-.324-.634 1.078 1.078 0 0 0-.335-.16 1.381 1.381 0 0 0-.382-.054c-.19 0-.372.033-.547.1a.875.875 0 0 0-.408.298l-.277-.275c.155-.179.348-.312.576-.401.228-.09.46-.134.7-.134.179 0 .354.026.524.08.17.054.32.132.451.236.131.105.236.236.313.394.078.159.117.341.117.55v2.599a4.28 4.28 0 0 1-1.544.252c-.185 0-.357-.026-.517-.076-.16-.051-.3-.127-.42-.23a1.077 1.077 0 0 1-.28-.378 1.295 1.295 0 0 1-.102-.538c0-.225.043-.415.128-.57.085-.155.195-.283.331-.382.136-.1.29-.172.463-.218.172-.046.348-.068.528-.068a2.566 2.566 0 0 1 1.005.206v-.597zm0 .948a2.896 2.896 0 0 0-.452-.134 2.516 2.516 0 0 0-.539-.057c-.14 0-.274.014-.4.042a.906.906 0 0 0-.335.146.761.761 0 0 0-.233.267.89.89 0 0 0-.087.417c0 .3.088.514.266.641.177.128.398.194.666.2a4.76 4.76 0 0 0 .56-.02c.19-.018.375-.05.554-.095v-1.407zm4.877 1.903c-.37 0-.653-.11-.853-.329-.198-.22-.298-.527-.298-.924v-4.234h.407v4.234c0 .265.06.468.18.611.118.143.306.214.564.214v.428zm2.807-5.006a.34.34 0 0 1 .095-.244c.063-.067.14-.1.233-.1a.31.31 0 0 1 .234.1.343.343 0 0 1 .094.244.344.344 0 0 1-.094.245.31.31 0 0 1-.234.1.306.306 0 0 1-.233-.1.341.341 0 0 1-.095-.245zm.125 4.93h.408v-3.96h-.408v3.96zm6.012-2.775a.752.752 0 0 0-.087-.37.802.802 0 0 0-.237-.264 1.082 1.082 0 0 0-.335-.16 1.372 1.372 0 0 0-.383-.054c-.189 0-.37.033-.546.1a.87.87 0 0 0-.407.298l-.277-.275c.155-.179.347-.312.575-.401.228-.09.461-.134.699-.134.18 0 .355.026.524.08.17.054.32.132.452.236a1.154 1.154 0 0 1 .43.944v2.599a4.279 4.279 0 0 1-1.544.252c-.184 0-.357-.026-.517-.076-.16-.051-.3-.127-.419-.23a1.06 1.06 0 0 1-.28-.378 1.299 1.299 0 0 1-.102-.538c0-.225.042-.415.127-.57.085-.155.196-.283.332-.382.135-.1.29-.172.462-.218.172-.046.348-.068.528-.068a2.558 2.558 0 0 1 1.005.206v-.597zm0 .948a2.877 2.877 0 0 0-.451-.134 2.514 2.514 0 0 0-.54-.057c-.14 0-.274.014-.4.042a.914.914 0 0 0-.335.146.747.747 0 0 0-.233.267.877.877 0 0 0-.088.417c0 .3.089.514.266.641.177.128.4.194.666.2a4.77 4.77 0 0 0 .562-.02c.189-.018.374-.05.553-.095v-1.407zm3.733-1.895c.233-.086.471-.16.714-.222.243-.061.488-.09.736-.09.174.003.345.033.513.086.168.054.317.133.448.237a1.165 1.165 0 0 1 .437.951v2.76h-.408v-2.775a.769.769 0 0 0-.317-.641.953.953 0 0 0-.317-.157 1.298 1.298 0 0 0-.356-.05c-.205 0-.401.025-.591.076-.189.052-.34.102-.451.154v3.393h-.408V29.09zm6.093.978c0-.214.041-.4.124-.562.082-.16.19-.294.324-.401a1.42 1.42 0 0 1 .46-.244 1.68 1.68 0 0 1 1.052 0c.17.055.32.137.455.244.133.107.241.24.324.401.083.161.124.348.124.562v1.528a1.21 1.21 0 0 1-.448.97 1.388 1.388 0 0 1-.455.241 1.749 1.749 0 0 1-1.053 0 1.369 1.369 0 0 1-.459-.24 1.201 1.201 0 0 1-.448-.971v-1.528zm1.435-.879c-.127 0-.25.016-.371.05a1.027 1.027 0 0 0-.329.153.814.814 0 0 0-.236.263.783.783 0 0 0-.091.39v1.567c0 .153.03.283.09.39.062.106.14.196.237.267.098.07.207.123.329.157a1.403 1.403 0 0 0 .735 0c.121-.034.23-.086.328-.157a.778.778 0 0 0 .328-.658v-1.566a.775.775 0 0 0-.092-.39.795.795 0 0 0-.236-.263 1.03 1.03 0 0 0-.328-.153 1.373 1.373 0 0 0-.364-.05zM108.303.688c.469 0 .893.187 1.2.489a1.652 1.652 0 0 1 0 2.36c-.307.303-.731.49-1.2.49-.468 0-.893-.187-1.2-.49a1.652 1.652 0 0 1 0-2.36c.307-.302.732-.49 1.2-.49m1.121.567a1.595 1.595 0 0 0-1.12-.456c-.439 0-.834.174-1.12.456a1.542 1.542 0 0 0 0 2.205c.286.283.681.458 1.12.458.437 0 .833-.175 1.12-.458a1.545 1.545 0 0 0 0-2.205M108.3 2.992c.23 0 .417-.09.562-.268l.3.303c-.238.263-.518.394-.84.394-.322 0-.587-.1-.795-.3a1.004 1.004 0 0 1-.313-.758c0-.305.106-.56.319-.764.212-.204.472-.306.779-.306.343 0 .63.129.861.386l-.29.323a.683.683 0 0 0-.55-.27.648.648 0 0 0-.45.169.586.586 0 0 0-.187.456c0 .191.059.345.176.46.118.117.26.175.428.175"/>
    </g>
</svg>
